# xmcd
#
# Track frame offsets:
#	150
#	9906
#	18150
#	26551
#	35877
#	45080
#	55672
#	64247
#	74046
#	82528
#	95724
#	104606
#	115067
#	126753
#	134920
#	151043
#	159506
#	172602
#
# Disc length: 2448 seconds
#
# Revision: 1
# Processed by: cddbd v1.5.2PL0 Copyright (c) Steve Scherf et al.
# Submitted via: audiograbber 1.83.01
#
DISCID=de098e12
DTITLE=Celtic Country Band - The Best of Celtic
DYEAR=2009
DGENRE=
TTITLE0=Roscarbury
TTITLE1=The Nightimgale
TTITLE2=Rising of the Moon
TTITLE3=Man Ches Ter Hornpipe
TTITLE4=Rambling Irishman
TTITLE5=Close of the Day
TTITLE6=Champion at Keppin Them Rollin
TTITLE7=White, Orange a Green
TTITLE8=Danny Boy
TTITLE9=Loch Lomond
TTITLE10=Whiskey in the Jar
TTITLE11=The Rocky Road to Dublin
TTITLE12=The Last Rose of Summer
TTITLE13=Arthur Mc Bride
TTITLE14=Three Young Ladies
TTITLE15=Night Visiting Sun
TTITLE16=Burns Hornpipe
TTITLE17=Braveheart
EXTD=
EXTT0=
EXTT1=
EXTT2=
EXTT3=
EXTT4=
EXTT5=
EXTT6=
EXTT7=
EXTT8=
EXTT9=
EXTT10=
EXTT11=
EXTT12=
EXTT13=
EXTT14=
EXTT15=
EXTT16=
EXTT17=
PLAYORDER=
